<?xml version="1.0" encoding="utf-8"?>
<!-- Generator: Adobe Illustrator 24.1.3, SVG Export Plug-In . SVG Version: 6.00 Build 0)  -->
<svg version="1.1" id="sketchvalley" xmlns="http://www.w3.org/2000/svg" xmlns:xlink="http://www.w3.org/1999/xlink" x="0px"
	 y="0px" viewBox="0 0 514.1 334.1" style="enable-background:new 0 0 514.1 334.1;" xml:space="preserve">
<style type="text/css">
	.st0{clip-path:url(#SVGID_2_);}
	.st1{clip-path:url(#SVGID_4_);fill:#FAE1DC;}
	.st2{clip-path:url(#SVGID_6_);}
	.st3{clip-path:url(#SVGID_8_);fill:#FEECE3;}
	.st4{clip-path:url(#SVGID_10_);}
	.st5{clip-path:url(#SVGID_12_);fill:#FEECE3;}
	.st6{clip-path:url(#SVGID_14_);}
	.st7{clip-path:url(#SVGID_16_);fill:#FEECE3;}
	.st8{clip-path:url(#SVGID_18_);}
	.st9{clip-path:url(#SVGID_20_);fill:#FEECE3;}
	.st10{clip-path:url(#SVGID_22_);}
	.st11{clip-path:url(#SVGID_24_);fill:#FEECE3;}
	.st12{clip-path:url(#SVGID_26_);}
	.st13{clip-path:url(#SVGID_28_);fill:#FEECE3;}
	.st14{clip-path:url(#SVGID_30_);}
	.st15{clip-path:url(#SVGID_32_);fill:#FEECE3;}
	.st16{clip-path:url(#SVGID_34_);}
	.st17{clip-path:url(#SVGID_36_);fill:#FEECE3;}
	.st18{clip-path:url(#SVGID_38_);}
	.st19{clip-path:url(#SVGID_40_);fill:#FEECE3;}
	.st20{clip-path:url(#SVGID_42_);}
	.st21{clip-path:url(#SVGID_44_);fill:#FEECE3;}
	.st22{clip-path:url(#SVGID_46_);}
	.st23{clip-path:url(#SVGID_48_);fill:#FEECE3;}
	.st24{clip-path:url(#SVGID_50_);}
	.st25{clip-path:url(#SVGID_52_);fill:#FEECE3;}
	.st26{clip-path:url(#SVGID_54_);}
	.st27{clip-path:url(#SVGID_56_);fill:#31C6B3;}
	.st28{fill:none;stroke:#FEF4EF;stroke-width:1.046;stroke-miterlimit:10;}
	.st29{clip-path:url(#SVGID_58_);}
	.st30{clip-path:url(#SVGID_60_);fill:#41CFEB;}
	.st31{clip-path:url(#SVGID_62_);}
	.st32{clip-path:url(#SVGID_64_);fill:#72D1DC;}
	.st33{clip-path:url(#SVGID_66_);}
	.st34{clip-path:url(#SVGID_68_);fill:#72D1DC;}
	.st35{clip-path:url(#SVGID_70_);}
	.st36{clip-path:url(#SVGID_72_);fill:#00B6DA;}
	.st37{clip-path:url(#SVGID_74_);}
	.st38{clip-path:url(#SVGID_76_);fill:#00B6DA;}
	.st39{fill:none;stroke:#EEC3B0;stroke-width:2.062;stroke-miterlimit:10;}
	.st40{clip-path:url(#SVGID_78_);}
	.st41{clip-path:url(#SVGID_80_);fill:#F67E6C;}
	.st42{clip-path:url(#SVGID_82_);}
	.st43{clip-path:url(#SVGID_84_);fill:#F67E6C;}
	.st44{clip-path:url(#SVGID_86_);}
	.st45{clip-path:url(#SVGID_88_);fill:#F67E6C;}
	.st46{clip-path:url(#SVGID_90_);}
	.st47{clip-path:url(#SVGID_92_);fill:#F67E6C;}
	.st48{clip-path:url(#SVGID_94_);}
	.st49{clip-path:url(#SVGID_96_);fill:#F67E6C;}
	.st50{clip-path:url(#SVGID_98_);}
	.st51{clip-path:url(#SVGID_100_);fill:#F67E6C;}
	.st52{clip-path:url(#SVGID_102_);}
	.st53{clip-path:url(#SVGID_104_);fill:#F67E6C;}
	.st54{clip-path:url(#SVGID_106_);}
	.st55{clip-path:url(#SVGID_108_);fill:#F67E6C;}
	.st56{fill:none;stroke:#EEC3B0;stroke-width:1.906;stroke-miterlimit:10;}
	.st57{clip-path:url(#SVGID_110_);}
	.st58{clip-path:url(#SVGID_112_);fill:#BF7B85;}
	.st59{clip-path:url(#SVGID_114_);}
	.st60{clip-path:url(#SVGID_116_);fill:#BF7B85;}
	.st61{clip-path:url(#SVGID_118_);}
	.st62{clip-path:url(#SVGID_120_);fill:#BF7B85;}
	.st63{clip-path:url(#SVGID_122_);}
	.st64{clip-path:url(#SVGID_124_);fill:#FCB69B;}
	.st65{fill:none;stroke:#4D2839;stroke-width:1.295;stroke-linecap:round;stroke-miterlimit:10;}
	.st66{clip-path:url(#SVGID_126_);}
	.st67{clip-path:url(#SVGID_128_);fill:#FCB69B;}
	.st68{clip-path:url(#SVGID_130_);}
	.st69{clip-path:url(#SVGID_132_);fill:#464461;}
	.st70{clip-path:url(#SVGID_134_);}
	.st71{clip-path:url(#SVGID_136_);fill:#F7C87F;}
	.st72{clip-path:url(#SVGID_138_);}
	.st73{clip-path:url(#SVGID_140_);fill:#FCB69B;}
	.st74{clip-path:url(#SVGID_142_);}
	.st75{clip-path:url(#SVGID_144_);fill:#F7C87F;}
	.st76{clip-path:url(#SVGID_146_);}
	.st77{clip-path:url(#SVGID_148_);fill:#FCB69B;}
	.st78{clip-path:url(#SVGID_150_);}
	.st79{clip-path:url(#SVGID_152_);fill:#FCB69B;}
	.st80{clip-path:url(#SVGID_154_);}
	.st81{clip-path:url(#SVGID_156_);fill:#FCB69B;}
	.st82{clip-path:url(#SVGID_158_);}
	.st83{clip-path:url(#SVGID_160_);fill:#F7C87F;}
	.st84{clip-path:url(#SVGID_162_);}
	.st85{clip-path:url(#SVGID_164_);fill:#FCB69B;}
	.st86{clip-path:url(#SVGID_166_);}
	.st87{clip-path:url(#SVGID_168_);fill:#FCB69B;}
	.st88{clip-path:url(#SVGID_170_);}
	.st89{clip-path:url(#SVGID_172_);fill:#FCB69B;}
	.st90{clip-path:url(#SVGID_174_);}
	.st91{clip-path:url(#SVGID_176_);fill:#FCB69B;}
	.st92{clip-path:url(#SVGID_178_);}
	.st93{clip-path:url(#SVGID_180_);fill:#4D293A;}
	.st94{clip-path:url(#SVGID_182_);}
	.st95{clip-path:url(#SVGID_184_);fill:#464461;}
	.st96{clip-path:url(#SVGID_186_);}
	.st97{clip-path:url(#SVGID_188_);fill:#FCB69B;}
	.st98{clip-path:url(#SVGID_190_);}
	.st99{clip-path:url(#SVGID_192_);fill:#FCB69B;}
	.st100{clip-path:url(#SVGID_194_);}
	.st101{clip-path:url(#SVGID_196_);fill:#FCB69B;}
	.st102{clip-path:url(#SVGID_198_);}
	.st103{clip-path:url(#SVGID_200_);fill:#464461;}
	.st104{clip-path:url(#SVGID_202_);}
	.st105{clip-path:url(#SVGID_204_);fill:#464461;}
	.st106{fill:none;stroke:#4D2839;stroke-width:1.554;stroke-linecap:round;stroke-linejoin:round;stroke-miterlimit:10;}
	.st107{clip-path:url(#SVGID_206_);}
	.st108{clip-path:url(#SVGID_208_);fill:#F0626D;}
	.st109{clip-path:url(#SVGID_210_);}
	.st110{clip-path:url(#SVGID_212_);fill:#F0626D;}
	.st111{fill:none;stroke:#4D2839;stroke-width:1.554;stroke-linecap:round;stroke-miterlimit:10;}
	.st112{clip-path:url(#SVGID_214_);}
	.st113{clip-path:url(#SVGID_216_);fill:#4D293A;}
	.st114{clip-path:url(#SVGID_218_);}
	.st115{clip-path:url(#SVGID_220_);fill:#4D293A;}
	.st116{clip-path:url(#SVGID_222_);}
	.st117{clip-path:url(#SVGID_224_);fill:#464461;}
	.st118{clip-path:url(#SVGID_226_);}
	.st119{clip-path:url(#SVGID_228_);fill:#464461;}
</style>
<g>
	<g>
		<defs>
			<path id="SVGID_1_" d="M439.4,218.8c0-101.2-81.9-183.3-183-183.3c-101.1,0-183,82.1-183,183.3c0,11.9,1.1,23.5,3.3,34.7h359.4
				C438.3,242.3,439.4,230.7,439.4,218.8"/>
		</defs>
		<clipPath id="SVGID_2_">
			<use xlink:href="#SVGID_1_"  style="overflow:visible;"/>
		</clipPath>
		<g class="st0">
			<defs>
				<rect id="SVGID_3_" x="-105.6" y="-516.5" width="921" height="896"/>
			</defs>
			<clipPath id="SVGID_4_">
				<use xlink:href="#SVGID_3_"  style="overflow:visible;"/>
			</clipPath>
			<rect x="68.4" y="30.5" class="st1" width="376" height="228"/>
		</g>
	</g>
	<g>
		<defs>
			<path id="SVGID_5_" d="M301.4,198.5c3-14,7.2-27.3,15.1-41.4c7.9-14.1,19.4-28.8,36.9-46.6c0,0-0.5,3.6-2,9.6
				c-1.4,6-3.9,14.3-7.7,23.6C336.1,162.3,322.4,184.7,301.4,198.5"/>
		</defs>
		<clipPath id="SVGID_6_">
			<use xlink:href="#SVGID_5_"  style="overflow:visible;"/>
		</clipPath>
		<g class="st2">
			<defs>
				<rect id="SVGID_7_" x="-105.6" y="-516.5" width="921" height="896"/>
			</defs>
			<clipPath id="SVGID_8_">
				<use xlink:href="#SVGID_7_"  style="overflow:visible;"/>
			</clipPath>
			<rect x="296.4" y="105.5" class="st3" width="62" height="98"/>
		</g>
	</g>
	<g>
		<defs>
			<path id="SVGID_9_" d="M293.9,207.5c5.9-11,3.4-25.7-1.2-38.7c-4.6-13.1-11.2-24.6-13-30.3c0,0-4.4,13.4-5.2,28.6
				C273.8,182.3,276.6,199.7,293.9,207.5"/>
		</defs>
		<clipPath id="SVGID_10_">
			<use xlink:href="#SVGID_9_"  style="overflow:visible;"/>
		</clipPath>
		<g class="st4">
			<defs>
				<rect id="SVGID_11_" x="-105.6" y="-516.5" width="921" height="896"/>
			</defs>
			<clipPath id="SVGID_12_">
				<use xlink:href="#SVGID_11_"  style="overflow:visible;"/>
			</clipPath>
			<rect x="269.4" y="133.5" class="st5" width="33" height="79"/>
		</g>
	</g>
	<g>
		<defs>
			<path id="SVGID_13_" d="M293.4,210.4c12-11,27-16.2,41.5-19.3c14.5-3.1,28.4-3.9,37.5-5.6c0,0-2.7,3-7.3,7.2
				c-4.6,4.2-11.3,9.5-19,14C330.5,215.9,310.2,221.5,293.4,210.4"/>
		</defs>
		<clipPath id="SVGID_14_">
			<use xlink:href="#SVGID_13_"  style="overflow:visible;"/>
		</clipPath>
		<g class="st6">
			<defs>
				<rect id="SVGID_15_" x="-105.6" y="-516.5" width="921" height="896"/>
			</defs>
			<clipPath id="SVGID_16_">
				<use xlink:href="#SVGID_15_"  style="overflow:visible;"/>
			</clipPath>
			<rect x="288.4" y="180.5" class="st7" width="89" height="41"/>
		</g>
	</g>
	<g>
		<defs>
			<path id="SVGID_17_" d="M275.6,234.5c10.1-13,5.5-30.2-1.7-43.6c-7.2-13.5-16.9-23.4-16.9-23.4s-0.8,3-1.4,7.9
				c-0.7,4.8-1.3,11.4-1,18.7C255.1,208.4,259.1,225.4,275.6,234.5"/>
		</defs>
		<clipPath id="SVGID_18_">
			<use xlink:href="#SVGID_17_"  style="overflow:visible;"/>
		</clipPath>
		<g class="st8">
			<defs>
				<rect id="SVGID_19_" x="-105.6" y="-516.5" width="921" height="896"/>
			</defs>
			<clipPath id="SVGID_20_">
				<use xlink:href="#SVGID_19_"  style="overflow:visible;"/>
			</clipPath>
			<rect x="249.4" y="162.5" class="st9" width="37" height="77"/>
		</g>
	</g>
	<g>
		<defs>
			<path id="SVGID_21_" d="M275.4,233.3c11.5-8.7,27.2-13.2,43.2-13.7c16-0.5,32.5,3.2,44.8,12.1c0,0-8.2,5.3-19.7,9.1
				c-11.5,3.8-26.2,5.9-38.8,0.4c-12.6-5.5-19.9-7.6-24.1-8.1C276.5,232.4,275.4,233.3,275.4,233.3"/>
		</defs>
		<clipPath id="SVGID_22_">
			<use xlink:href="#SVGID_21_"  style="overflow:visible;"/>
		</clipPath>
		<g class="st10">
			<defs>
				<rect id="SVGID_23_" x="-105.6" y="-516.5" width="921" height="896"/>
			</defs>
			<clipPath id="SVGID_24_">
				<use xlink:href="#SVGID_23_"  style="overflow:visible;"/>
			</clipPath>
			<rect x="270.4" y="214.5" class="st11" width="98" height="35"/>
		</g>
	</g>
	<g>
		<defs>
			<path id="SVGID_25_" d="M262,246.2c0.1,0.4,0.1,0.8,0.1,1.2c0.2,0,0.4,0.1,0.6,0.1c0.4,0,0.7,0,1.1,0c3-7.7,1.5-17.8-3.8-26.8
				c-6.6-11.3-19.2-20.8-35.6-23.2c0,0,1.2,6.4,4.7,14c3.5,7.6,9.4,16.6,19.4,21.4C258.2,237.5,261.4,242.4,262,246.2"/>
		</defs>
		<clipPath id="SVGID_26_">
			<use xlink:href="#SVGID_25_"  style="overflow:visible;"/>
		</clipPath>
		<g class="st12">
			<defs>
				<rect id="SVGID_27_" x="-105.6" y="-516.5" width="921" height="896"/>
			</defs>
			<clipPath id="SVGID_28_">
				<use xlink:href="#SVGID_27_"  style="overflow:visible;"/>
			</clipPath>
			<rect x="219.4" y="192.5" class="st13" width="51" height="60"/>
		</g>
	</g>
	<g>
		<defs>
			<path id="SVGID_29_" d="M158.4,202.5c-9.4-7.3-17.9-15.2-25.7-26.2c-7.8-11-14.9-25.1-22.3-44.8c0,0,2.5,1.7,6.5,4.9
				c4,3.2,9.3,8,14.9,14.3C143,163.1,155.1,181.6,158.4,202.5"/>
		</defs>
		<clipPath id="SVGID_30_">
			<use xlink:href="#SVGID_29_"  style="overflow:visible;"/>
		</clipPath>
		<g class="st14">
			<defs>
				<rect id="SVGID_31_" x="-105.6" y="-516.5" width="921" height="896"/>
			</defs>
			<clipPath id="SVGID_32_">
				<use xlink:href="#SVGID_31_"  style="overflow:visible;"/>
			</clipPath>
			<rect x="105.4" y="126.5" class="st15" width="58" height="81"/>
		</g>
	</g>
	<g>
		<defs>
			<path id="SVGID_33_" d="M162.4,210.9c-6.2-8.4-17.9-11.7-29.1-12.7c-11.3-1.1-22,0-26.9-0.6c0,0,8.4,8.2,19.4,14.1
				C136.9,217.5,150.8,221.5,162.4,210.9"/>
		</defs>
		<clipPath id="SVGID_34_">
			<use xlink:href="#SVGID_33_"  style="overflow:visible;"/>
		</clipPath>
		<g class="st16">
			<defs>
				<rect id="SVGID_35_" x="-105.6" y="-516.5" width="921" height="896"/>
			</defs>
			<clipPath id="SVGID_36_">
				<use xlink:href="#SVGID_35_"  style="overflow:visible;"/>
			</clipPath>
			<rect x="101.4" y="192.5" class="st17" width="66" height="30"/>
		</g>
	</g>
	<g>
		<defs>
			<path id="SVGID_37_" d="M164.3,211.5c-4.3-13.2-3.2-26.7-0.7-39c2.5-12.3,6.5-23.4,8.2-31c0,0,1.4,3.1,2.9,8.2
				c1.6,5.1,3.3,12.1,4.2,19.8C180.6,184.8,178.1,202.5,164.3,211.5"/>
		</defs>
		<clipPath id="SVGID_38_">
			<use xlink:href="#SVGID_37_"  style="overflow:visible;"/>
		</clipPath>
		<g class="st18">
			<defs>
				<rect id="SVGID_39_" x="-105.6" y="-516.5" width="921" height="896"/>
			</defs>
			<clipPath id="SVGID_40_">
				<use xlink:href="#SVGID_39_"  style="overflow:visible;"/>
			</clipPath>
			<rect x="156.4" y="136.5" class="st19" width="28" height="80"/>
		</g>
	</g>
	<g>
		<defs>
			<path id="SVGID_41_" d="M175.4,233.5c-6.3-12-20.6-14.6-33-13.9c-12.4,0.7-23,4.5-23,4.5s2,1.6,5.4,3.8c3.4,2.2,8.1,5,13.5,7.3
				C149.2,239.8,163.1,242.7,175.4,233.5"/>
		</defs>
		<clipPath id="SVGID_42_">
			<use xlink:href="#SVGID_41_"  style="overflow:visible;"/>
		</clipPath>
		<g class="st20">
			<defs>
				<rect id="SVGID_43_" x="-105.6" y="-516.5" width="921" height="896"/>
			</defs>
			<clipPath id="SVGID_44_">
				<use xlink:href="#SVGID_43_"  style="overflow:visible;"/>
			</clipPath>
			<rect x="114.4" y="214.5" class="st21" width="66" height="30"/>
		</g>
	</g>
	<g>
		<defs>
			<path id="SVGID_45_" d="M174.4,234.5c-2.3-11.7-0.3-25.3,4.5-37.8c4.9-12.4,12.8-23.8,23.1-30.2c0,0,1,8.1-0.1,18.2
				c-1.1,10.1-4.4,22.1-12.4,29.9c-8,7.8-11.8,12.7-13.6,15.7C174.2,233.4,174.4,234.5,174.4,234.5"/>
		</defs>
		<clipPath id="SVGID_46_">
			<use xlink:href="#SVGID_45_"  style="overflow:visible;"/>
		</clipPath>
		<g class="st22">
			<defs>
				<rect id="SVGID_47_" x="-105.6" y="-516.5" width="921" height="896"/>
			</defs>
			<clipPath id="SVGID_48_">
				<use xlink:href="#SVGID_47_"  style="overflow:visible;"/>
			</clipPath>
			<rect x="168.4" y="161.5" class="st23" width="39" height="78"/>
		</g>
	</g>
	<g>
		<defs>
			<path id="SVGID_49_" d="M183.2,249.5c-3.7-7.5-1.5-18.1,4.8-26.9c6.3-8.8,16.9-15.9,30.4-15c0,0-1.3,5.7-4.9,12
				c-3.6,6.3-9.4,13-17.8,15.3c-8.2,2.3-11.3,6-12.3,9.1C182.3,247,183.2,249.5,183.2,249.5"/>
		</defs>
		<clipPath id="SVGID_50_">
			<use xlink:href="#SVGID_49_"  style="overflow:visible;"/>
		</clipPath>
		<g class="st24">
			<defs>
				<rect id="SVGID_51_" x="-105.6" y="-516.5" width="921" height="896"/>
			</defs>
			<clipPath id="SVGID_52_">
				<use xlink:href="#SVGID_51_"  style="overflow:visible;"/>
			</clipPath>
			<rect x="176.4" y="202.5" class="st25" width="47" height="52"/>
		</g>
	</g>
	<g>
		<defs>
			<path id="SVGID_53_" d="M172.2,253.3c0.4,0,0.8,0,1.3,0.1c2.5,0.4,5.1-0.1,7.6-0.2c0,0,0,0,0-0.1c2.5-3-3-1.3,5.5-11.7
				c4.3-5.2,1-23.1-13.9-38.4c6.1,12.1,3.5,28.7,2.1,24.2c-1.4-4.7-1.3-24.6-9-30.3c-7.3-5.4-17.1-11-28.2-14.2
				c11.4,13.8,14.1,26.4,10.2,26.5c-1.7,0-9.1-26.7-21.4-29c-10.2-1.9-21.9-2.2-35.1-1c1.1,10.9,1.8,21.1,5.9,29
				c9.7,18.7,39.4,16.8,41.6,21.9c1.7,4-25.6,0.5-37.3-9.6c5.4,12.7,15.4,24.3,22.7,29.4c7.3,5.1,25.5-4,30.3-4
				c4.6-0.1,3.2,4.3-9.3,7.2c0.8,0-0.8,0.1,0,0c1.4-0.3,1.5,0.2,2.8-0.1c1.3-0.3,2.8-0.4,3.7,0.1c2.3-0.2,4.7,0,7,0
				c1.2,0,2.1-0.2,3.3,0C165.6,252.6,168.7,253,172.2,253.3"/>
		</defs>
		<clipPath id="SVGID_54_">
			<use xlink:href="#SVGID_53_"  style="overflow:visible;"/>
		</clipPath>
		<g class="st26">
			<defs>
				<rect id="SVGID_55_" x="-105.6" y="-516.5" width="921" height="896"/>
			</defs>
			<clipPath id="SVGID_56_">
				<use xlink:href="#SVGID_55_"  style="overflow:visible;"/>
			</clipPath>
			<rect x="86.4" y="173.5" class="st27" width="107" height="85"/>
		</g>
	</g>
	<path class="st28" d="M104.4,193.5c0,0,29.4,17,70,60"/>
	<line class="st28" x1="128.4" y1="198.5" x2="134.4" y2="215.5"/>
	<g>
		<defs>
			<path id="SVGID_57_" d="M415,214.6c4.4-8.2,5.1-18.9,6.4-30.3c-14-1.3-26.4-1-37.2,0.9c-13,2.3-21,30.2-22.8,30.2
				c-4.2-0.1-1.2-13.2,10.9-27.6c-11.8,3.3-22.2,9.1-29.9,14.7c-8.2,5.9-8.1,26.7-9.7,31.6c-1.5,4.7-4.1-12.7,2.4-25.3
				c-15.9,16-19.4,34.6-14.9,40.1c8.9,10.9,16-1.1,18.7,2.1c0.7,0.9,1,1.2,0.1,2.4c1.3-0.3,1.7,0.1,2.9,0c1.4,0,3.2-0.6,4.4-0.2
				c0.8,0,1.3-0.1,2-0.2c0.3,0,1.2,0,1.4,0c5.7-0.3,10.6,0.2,16.3,0.2c1,0,1.9,0,2.9,0.1c7.9-0.5,15.7-0.9,23.6-0.3
				c6.6-6.2,13.7-15.5,18-25.5c-12.5,10.4-41.4,13.9-39.6,9.8C373.2,231.9,404.6,234.1,415,214.6"/>
		</defs>
		<clipPath id="SVGID_58_">
			<use xlink:href="#SVGID_57_"  style="overflow:visible;"/>
		</clipPath>
		<g class="st29">
			<defs>
				<rect id="SVGID_59_" x="-105.6" y="-516.5" width="921" height="896"/>
			</defs>
			<clipPath id="SVGID_60_">
				<use xlink:href="#SVGID_59_"  style="overflow:visible;"/>
			</clipPath>
			<rect x="313.4" y="178.5" class="st30" width="113" height="80"/>
		</g>
	</g>
	<path class="st28" d="M407.4,198.5c0,0-22.9,9.8-66,54"/>
	<line class="st28" x1="380.4" y1="205.5" x2="374.4" y2="221.5"/>
	<g>
		<defs>
			<path id="SVGID_61_" d="M232.3,252.9c1.2-4.3,1.9-9.1,2.1-14.3c-2.1,6.2-6.5,11.7-10,15C227,253.4,229.7,253,232.3,252.9"/>
		</defs>
		<clipPath id="SVGID_62_">
			<use xlink:href="#SVGID_61_"  style="overflow:visible;"/>
		</clipPath>
		<g class="st31">
			<defs>
				<rect id="SVGID_63_" x="-105.6" y="-516.5" width="921" height="896"/>
			</defs>
			<clipPath id="SVGID_64_">
				<use xlink:href="#SVGID_63_"  style="overflow:visible;"/>
			</clipPath>
			<rect x="219.4" y="233.5" class="st32" width="20" height="25"/>
		</g>
	</g>
	<g>
		<defs>
			<path id="SVGID_65_" d="M184.6,252.5c1.3,0,2.5,0,3.8,0c-1.7-1-3.7-2.3-6-3.9c0.4,1.4,0.8,2.7,1.2,4
				C183.9,252.5,184.3,252.5,184.6,252.5"/>
		</defs>
		<clipPath id="SVGID_66_">
			<use xlink:href="#SVGID_65_"  style="overflow:visible;"/>
		</clipPath>
		<g class="st33">
			<defs>
				<rect id="SVGID_67_" x="-105.6" y="-516.5" width="921" height="896"/>
			</defs>
			<clipPath id="SVGID_68_">
				<use xlink:href="#SVGID_67_"  style="overflow:visible;"/>
			</clipPath>
			<rect x="177.4" y="243.5" class="st34" width="16" height="14"/>
		</g>
	</g>
	<g>
		<defs>
			<path id="SVGID_69_" d="M198.9,252.6c1.1-0.1,1.9,0.1,2.7,0.5c2.3-0.3,4.7-0.4,7-0.4c1.1-0.1,2.1-0.1,3.2-0.1
				c1.7-0.2,3.5-0.5,5.3-0.6c2.1-0.2,4.2-0.1,6.3-0.1c-9.2-26.2-35.4-89-83.2-114.4c0,0-11.3,43.5,49.2,116c2.5-0.2,4.9-0.4,7.4-0.7
				C197.5,252.8,198.2,252.7,198.9,252.6"/>
		</defs>
		<clipPath id="SVGID_70_">
			<use xlink:href="#SVGID_69_"  style="overflow:visible;"/>
		</clipPath>
		<g class="st35">
			<defs>
				<rect id="SVGID_71_" x="-105.6" y="-516.5" width="921" height="896"/>
			</defs>
			<clipPath id="SVGID_72_">
				<use xlink:href="#SVGID_71_"  style="overflow:visible;"/>
			</clipPath>
			<rect x="134.4" y="132.5" class="st36" width="94" height="126"/>
		</g>
	</g>
	<line class="st28" x1="150.4" y1="156.5" x2="206.4" y2="251.5"/>
	<line class="st28" x1="176.4" y1="201.5" x2="178.4" y2="180.5"/>
	<line class="st28" x1="181.4" y1="227.5" x2="194.4" y2="231.5"/>
	<g>
		<defs>
			<path id="SVGID_73_" d="M280.6,248.4c3.5,0.5,7.3,1,10.8,1.6c1.3,0.2,2.4,0.2,3.8,0.6c1.3-0.1,2.2,0.7,3.3,0.8
				c0.2,0,0.4,0.1,0.6,0.1c66.7-71.8,56.8-117,56.8-117c-68,36-72.4,76.1-85.5,112.2c2.5,0.5,5,1,7.5,1.4
				C278.8,248.2,280,248,280.6,248.4"/>
		</defs>
		<clipPath id="SVGID_74_">
			<use xlink:href="#SVGID_73_"  style="overflow:visible;"/>
		</clipPath>
		<g class="st37">
			<defs>
				<rect id="SVGID_75_" x="-105.6" y="-516.5" width="921" height="896"/>
			</defs>
			<clipPath id="SVGID_76_">
				<use xlink:href="#SVGID_75_"  style="overflow:visible;"/>
			</clipPath>
			<rect x="265.4" y="129.5" class="st38" width="96" height="127"/>
		</g>
	</g>
	<line class="st28" x1="347.4" y1="153.5" x2="284.4" y2="248.5"/>
	<line class="st28" x1="316.4" y1="198.5" x2="315.4" y2="177.5"/>
	<line class="st28" x1="310.4" y1="223.5" x2="297.4" y2="227.5"/>
	<path class="st39" d="M105.4,253.5c0,0-34.9-24.6-30.6-74"/>
	<g>
		<defs>
			<path id="SVGID_77_" d="M82.4,176.6c0.3,3.6-2.4,6.7-6,7c-3.6,0.3-6.7-2.4-7-6c-0.3-3.6,2.4-6.7,6-7
				C79,170.3,82.1,173,82.4,176.6"/>
		</defs>
		<clipPath id="SVGID_78_">
			<use xlink:href="#SVGID_77_"  style="overflow:visible;"/>
		</clipPath>
		<g class="st40">
			<defs>
				<rect id="SVGID_79_" x="-105.6" y="-516.5" width="921" height="896"/>
			</defs>
			<clipPath id="SVGID_80_">
				<use xlink:href="#SVGID_79_"  style="overflow:visible;"/>
			</clipPath>
			<rect x="64.4" y="165.5" class="st41" width="23" height="23"/>
		</g>
	</g>
	<g>
		<defs>
			<path id="SVGID_81_" d="M80.4,167.2c0.2,2.2-1.5,4.1-3.7,4.3c-2.2,0.2-4.1-1.5-4.3-3.7c-0.2-2.2,1.5-4.1,3.7-4.3
				C78.3,163.4,80.2,165,80.4,167.2"/>
		</defs>
		<clipPath id="SVGID_82_">
			<use xlink:href="#SVGID_81_"  style="overflow:visible;"/>
		</clipPath>
		<g class="st42">
			<defs>
				<rect id="SVGID_83_" x="-105.6" y="-516.5" width="921" height="896"/>
			</defs>
			<clipPath id="SVGID_84_">
				<use xlink:href="#SVGID_83_"  style="overflow:visible;"/>
			</clipPath>
			<rect x="67.4" y="158.5" class="st43" width="18" height="18"/>
		</g>
	</g>
	<path class="st39" d="M105.4,251.4c0,0-36.6,3.8-52-31.9"/>
	<g>
		<defs>
			<path id="SVGID_85_" d="M55.6,215.8c1.5,2.3,0.8,5.4-1.5,6.9c-2.3,1.5-5.4,0.8-6.9-1.5c-1.5-2.3-0.8-5.4,1.5-6.9
				C51.1,212.8,54.1,213.5,55.6,215.8"/>
		</defs>
		<clipPath id="SVGID_86_">
			<use xlink:href="#SVGID_85_"  style="overflow:visible;"/>
		</clipPath>
		<g class="st44">
			<defs>
				<rect id="SVGID_87_" x="-105.6" y="-516.5" width="921" height="896"/>
			</defs>
			<clipPath id="SVGID_88_">
				<use xlink:href="#SVGID_87_"  style="overflow:visible;"/>
			</clipPath>
			<rect x="41.4" y="208.5" class="st45" width="20" height="20"/>
		</g>
	</g>
	<g>
		<defs>
			<path id="SVGID_89_" d="M51.9,209.9c0.9,1.4,0.5,3.3-0.9,4.1c-1.4,0.9-3.3,0.5-4.1-0.9c-0.9-1.4-0.5-3.3,0.9-4.1
				C49.2,208.1,51,208.5,51.9,209.9"/>
		</defs>
		<clipPath id="SVGID_90_">
			<use xlink:href="#SVGID_89_"  style="overflow:visible;"/>
		</clipPath>
		<g class="st46">
			<defs>
				<rect id="SVGID_91_" x="-105.6" y="-516.5" width="921" height="896"/>
			</defs>
			<clipPath id="SVGID_92_">
				<use xlink:href="#SVGID_91_"  style="overflow:visible;"/>
			</clipPath>
			<rect x="41.4" y="203.5" class="st47" width="16" height="16"/>
		</g>
	</g>
	<path class="st39" d="M405.4,253.5c0,0,34.9-24.6,30.6-74"/>
	<g>
		<defs>
			<path id="SVGID_93_" d="M428.4,176.6c-0.3,3.6,2.4,6.7,6,7c3.6,0.3,6.7-2.4,7-6c0.3-3.6-2.4-6.7-6-7
				C431.8,170.3,428.7,173,428.4,176.6"/>
		</defs>
		<clipPath id="SVGID_94_">
			<use xlink:href="#SVGID_93_"  style="overflow:visible;"/>
		</clipPath>
		<g class="st48">
			<defs>
				<rect id="SVGID_95_" x="-105.6" y="-516.5" width="921" height="896"/>
			</defs>
			<clipPath id="SVGID_96_">
				<use xlink:href="#SVGID_95_"  style="overflow:visible;"/>
			</clipPath>
			<rect x="423.4" y="165.5" class="st49" width="23" height="23"/>
		</g>
	</g>
	<g>
		<defs>
			<path id="SVGID_97_" d="M430.4,167.2c-0.2,2.2,1.5,4.1,3.7,4.3c2.2,0.2,4.1-1.5,4.3-3.7c0.2-2.2-1.5-4.1-3.7-4.3
				C432.5,163.4,430.6,165,430.4,167.2"/>
		</defs>
		<clipPath id="SVGID_98_">
			<use xlink:href="#SVGID_97_"  style="overflow:visible;"/>
		</clipPath>
		<g class="st50">
			<defs>
				<rect id="SVGID_99_" x="-105.6" y="-516.5" width="921" height="896"/>
			</defs>
			<clipPath id="SVGID_100_">
				<use xlink:href="#SVGID_99_"  style="overflow:visible;"/>
			</clipPath>
			<rect x="425.4" y="158.5" class="st51" width="18" height="18"/>
		</g>
	</g>
	<path class="st39" d="M406.4,251.4c0,0,36.6,3.8,52-31.9"/>
	<g>
		<defs>
			<path id="SVGID_101_" d="M455.2,215.8c-1.5,2.3-0.8,5.4,1.5,6.9c2.3,1.5,5.4,0.8,6.9-1.5c1.5-2.3,0.8-5.4-1.5-6.9
				C459.7,212.8,456.7,213.5,455.2,215.8"/>
		</defs>
		<clipPath id="SVGID_102_">
			<use xlink:href="#SVGID_101_"  style="overflow:visible;"/>
		</clipPath>
		<g class="st52">
			<defs>
				<rect id="SVGID_103_" x="-105.6" y="-516.5" width="921" height="896"/>
			</defs>
			<clipPath id="SVGID_104_">
				<use xlink:href="#SVGID_103_"  style="overflow:visible;"/>
			</clipPath>
			<rect x="449.4" y="208.5" class="st53" width="20" height="20"/>
		</g>
	</g>
	<g>
		<defs>
			<path id="SVGID_105_" d="M458.9,209.9c-0.9,1.4-0.5,3.3,0.9,4.1c1.4,0.9,3.3,0.5,4.1-0.9c0.9-1.4,0.5-3.3-0.9-4.1
				C461.6,208.1,459.8,208.5,458.9,209.9"/>
		</defs>
		<clipPath id="SVGID_106_">
			<use xlink:href="#SVGID_105_"  style="overflow:visible;"/>
		</clipPath>
		<g class="st54">
			<defs>
				<rect id="SVGID_107_" x="-105.6" y="-516.5" width="921" height="896"/>
			</defs>
			<clipPath id="SVGID_108_">
				<use xlink:href="#SVGID_107_"  style="overflow:visible;"/>
			</clipPath>
			<rect x="453.4" y="203.5" class="st55" width="16" height="16"/>
		</g>
	</g>
	<line class="st56" x1="33.4" y1="253" x2="479.4" y2="253"/>
	<polygon class="st56" points="136.1,265.5 71.4,294.5 439.4,294.5 376.5,265.5 	"/>
	<g>
		<defs>
			<polygon id="SVGID_109_" points="231.9,208.5 219.4,229.3 243.5,258.5 267.8,258.5 290.4,228.9 276.4,208.5 			"/>
		</defs>
		<clipPath id="SVGID_110_">
			<use xlink:href="#SVGID_109_"  style="overflow:visible;"/>
		</clipPath>
		<g class="st57">
			<defs>
				<rect id="SVGID_111_" x="-105.6" y="-516.5" width="921" height="896"/>
			</defs>
			<clipPath id="SVGID_112_">
				<use xlink:href="#SVGID_111_"  style="overflow:visible;"/>
			</clipPath>
			<rect x="214.4" y="203.5" class="st58" width="81" height="60"/>
		</g>
	</g>
	<g>
		<defs>
			<path id="SVGID_113_" d="M219,229.5c0,0-54.7,4.2-68.4,18.6c-13.7,14.4-5.8,23.9,6.1,30c16.8,8.6,66.2,6.7,97.6-3.7l5.1-30
				L219,229.5z"/>
		</defs>
		<clipPath id="SVGID_114_">
			<use xlink:href="#SVGID_113_"  style="overflow:visible;"/>
		</clipPath>
		<g class="st59">
			<defs>
				<rect id="SVGID_115_" x="-105.6" y="-516.5" width="921" height="896"/>
			</defs>
			<clipPath id="SVGID_116_">
				<use xlink:href="#SVGID_115_"  style="overflow:visible;"/>
			</clipPath>
			<rect x="138.4" y="224.5" class="st60" width="126" height="64"/>
		</g>
	</g>
	<g>
		<defs>
			<path id="SVGID_117_" d="M290.1,228.5c0,0,57.3,5,71.1,19.4c13.7,14.4,5.8,23.9-6.1,30c-16.8,8.6-77.3,7.2-108.6-3.3l5.8-30.4
				L290.1,228.5z"/>
		</defs>
		<clipPath id="SVGID_118_">
			<use xlink:href="#SVGID_117_"  style="overflow:visible;"/>
		</clipPath>
		<g class="st61">
			<defs>
				<rect id="SVGID_119_" x="-105.6" y="-516.5" width="921" height="896"/>
			</defs>
			<clipPath id="SVGID_120_">
				<use xlink:href="#SVGID_119_"  style="overflow:visible;"/>
			</clipPath>
			<rect x="241.4" y="223.5" class="st62" width="132" height="65"/>
		</g>
	</g>
	<g>
		<defs>
			<path id="SVGID_121_" d="M303.5,253.5l-12.2-1.5l-1.9-5l4.8-2.2c0,0-0.7-7.1,5.2-8.2c5.8-1.2,12.8,3.7,19.6,0.6
				c6.3-2.9,13.9-5.6,21.1-1.6c1.1,0.6,1.6,1.9,1.2,3.1l0,0.1c-0.4,1.2-1.5,1.9-2.7,1.8c-2.5-0.3-7-0.2-11.5,2.6
				C322.6,246,311.7,250.4,303.5,253.5"/>
		</defs>
		<clipPath id="SVGID_122_">
			<use xlink:href="#SVGID_121_"  style="overflow:visible;"/>
		</clipPath>
		<g class="st63">
			<defs>
				<rect id="SVGID_123_" x="-105.6" y="-516.5" width="921" height="896"/>
			</defs>
			<clipPath id="SVGID_124_">
				<use xlink:href="#SVGID_123_"  style="overflow:visible;"/>
			</clipPath>
			<rect x="284.4" y="228.5" class="st64" width="62" height="30"/>
		</g>
	</g>
	<line class="st65" x1="262.4" y1="249.5" x2="287.4" y2="247.5"/>
	<path class="st65" d="M249.4,275.5c-19.1-4.5-39-15.9-39-15.9l1.2-2.1"/>
	<path class="st65" d="M219.4,249.7c0,0,89.1-2.5,112,10.8"/>
	<path class="st65" d="M175.4,255.5c0,0,16-7,27-2.4"/>
	<g>
		<defs>
			<path id="SVGID_125_" d="M212.6,258.5l5.8-9.3l-5.8-3.3c0,0,1.2-7-4.5-8.7c-5.7-1.6-13,2.7-19.5-1c-6-3.4-13.4-6.7-20.7-3.3
				c-1.1,0.5-1.7,1.8-1.4,3l0,0.1c0.3,1.2,1.3,2.1,2.5,2c2.5-0.1,7,0.4,11.2,3.5C187.4,247.1,212.6,258.5,212.6,258.5"/>
		</defs>
		<clipPath id="SVGID_126_">
			<use xlink:href="#SVGID_125_"  style="overflow:visible;"/>
		</clipPath>
		<g class="st66">
			<defs>
				<rect id="SVGID_127_" x="-105.6" y="-516.5" width="921" height="896"/>
			</defs>
			<clipPath id="SVGID_128_">
				<use xlink:href="#SVGID_127_"  style="overflow:visible;"/>
			</clipPath>
			<rect x="161.4" y="226.5" class="st67" width="62" height="37"/>
		</g>
	</g>
	<line class="st65" x1="233.4" y1="239.5" x2="246.4" y2="249.5"/>
	<g>
		<defs>
			<path id="SVGID_129_" d="M290.7,117.9c-9.1-14.5-10.7-38.4-10.7-38.4l-22.4-9.1v-0.8l-1.4,0.4l-1.4-0.4v0.8l-22.3,8.9
				c0,0-2.4,24.9-11.6,39.4c-9,14.4-2.5,32.3,35.2,29.7C293.9,150.9,299.7,132.2,290.7,117.9"/>
		</defs>
		<clipPath id="SVGID_130_">
			<use xlink:href="#SVGID_129_"  style="overflow:visible;"/>
		</clipPath>
		<g class="st68">
			<defs>
				<rect id="SVGID_131_" x="-105.6" y="-516.5" width="921" height="896"/>
			</defs>
			<clipPath id="SVGID_132_">
				<use xlink:href="#SVGID_131_"  style="overflow:visible;"/>
			</clipPath>
			<rect x="212.4" y="64.5" class="st69" width="87" height="89"/>
		</g>
	</g>
	<g>
		<defs>
			<path id="SVGID_133_" d="M268.4,129.6l21.6,6.9c4,1.5,5.1,6,4,10.1l-17.2,61.9h-44.8l-15.5-63.2c-0.6-2.9,0.8-7.1,3.5-8.2
				l23.4-8.6L268.4,129.6z"/>
		</defs>
		<clipPath id="SVGID_134_">
			<use xlink:href="#SVGID_133_"  style="overflow:visible;"/>
		</clipPath>
		<g class="st70">
			<defs>
				<rect id="SVGID_135_" x="-105.6" y="-516.5" width="921" height="896"/>
			</defs>
			<clipPath id="SVGID_136_">
				<use xlink:href="#SVGID_135_"  style="overflow:visible;"/>
			</clipPath>
			<rect x="211.4" y="123.5" class="st71" width="88" height="90"/>
		</g>
	</g>
	<g>
		<defs>
			<path id="SVGID_137_" d="M285,161.6l22.9,50.1c1.8,4.9,7,7.7,12.2,6.6c6.2-1.3,9.8-7.7,7.7-13.5c-4.5-12.5-18-37.8-22.7-50.3
				c-2.3-6.1-9.6-8.7-15.3-5.5C285.3,151.4,283.3,156.8,285,161.6"/>
		</defs>
		<clipPath id="SVGID_138_">
			<use xlink:href="#SVGID_137_"  style="overflow:visible;"/>
		</clipPath>
		<g class="st72">
			<defs>
				<rect id="SVGID_139_" x="-105.6" y="-516.5" width="921" height="896"/>
			</defs>
			<clipPath id="SVGID_140_">
				<use xlink:href="#SVGID_139_"  style="overflow:visible;"/>
			</clipPath>
			<rect x="279.4" y="142.5" class="st73" width="54" height="81"/>
		</g>
	</g>
	<g>
		<defs>
			<path id="SVGID_141_" d="M290.5,136.5c0,0,7.5,0.7,16.9,24.9l-21.9,11.1l-7.1-20.8L290.5,136.5z"/>
		</defs>
		<clipPath id="SVGID_142_">
			<use xlink:href="#SVGID_141_"  style="overflow:visible;"/>
		</clipPath>
		<g class="st74">
			<defs>
				<rect id="SVGID_143_" x="-105.6" y="-516.5" width="921" height="896"/>
			</defs>
			<clipPath id="SVGID_144_">
				<use xlink:href="#SVGID_143_"  style="overflow:visible;"/>
			</clipPath>
			<rect x="273.4" y="131.5" class="st75" width="39" height="46"/>
		</g>
	</g>
	<line class="st65" x1="287.4" y1="171.5" x2="290.4" y2="158.5"/>
	<g>
		<defs>
			<path id="SVGID_145_" d="M312.4,195.6c-0.6-0.2-0.3,1.1-54.7-22.1l-2.3,3.1c-0.1,3.3,0.6,6.4,2.6,7.7l53.7,34.1L312.4,195.6z"/>
		</defs>
		<clipPath id="SVGID_146_">
			<use xlink:href="#SVGID_145_"  style="overflow:visible;"/>
		</clipPath>
		<g class="st76">
			<defs>
				<rect id="SVGID_147_" x="-105.6" y="-516.5" width="921" height="896"/>
			</defs>
			<clipPath id="SVGID_148_">
				<use xlink:href="#SVGID_147_"  style="overflow:visible;"/>
			</clipPath>
			<rect x="250.4" y="168.5" class="st77" width="67" height="55"/>
		</g>
	</g>
	<g>
		<defs>
			<path id="SVGID_149_" d="M255.7,176.9l-0.3-26.3c0-0.6,0.5-1.1,1.2-1.1c0.6,0,1,0.4,1.1,0.9l7.7,31.1L255.7,176.9z"/>
		</defs>
		<clipPath id="SVGID_150_">
			<use xlink:href="#SVGID_149_"  style="overflow:visible;"/>
		</clipPath>
		<g class="st78">
			<defs>
				<rect id="SVGID_151_" x="-105.6" y="-516.5" width="921" height="896"/>
			</defs>
			<clipPath id="SVGID_152_">
				<use xlink:href="#SVGID_151_"  style="overflow:visible;"/>
			</clipPath>
			<rect x="250.4" y="144.5" class="st79" width="20" height="42"/>
		</g>
	</g>
	<g>
		<defs>
			<path id="SVGID_153_" d="M225.8,161.6l-22.9,50.1c-1.8,4.9-7,7.7-12.2,6.6c-6.2-1.3-9.8-7.7-7.7-13.5c4.5-12.5,18-37.8,22.7-50.3
				c2.3-6.1,9.6-8.7,15.3-5.5C225.5,151.4,227.5,156.8,225.8,161.6"/>
		</defs>
		<clipPath id="SVGID_154_">
			<use xlink:href="#SVGID_153_"  style="overflow:visible;"/>
		</clipPath>
		<g class="st80">
			<defs>
				<rect id="SVGID_155_" x="-105.6" y="-516.5" width="921" height="896"/>
			</defs>
			<clipPath id="SVGID_156_">
				<use xlink:href="#SVGID_155_"  style="overflow:visible;"/>
			</clipPath>
			<rect x="177.4" y="142.5" class="st81" width="54" height="81"/>
		</g>
	</g>
	<g>
		<defs>
			<path id="SVGID_157_" d="M219.3,136.5c0,0-7.5,0.7-16.9,24.9l21.9,11.1l7.1-20.8L219.3,136.5z"/>
		</defs>
		<clipPath id="SVGID_158_">
			<use xlink:href="#SVGID_157_"  style="overflow:visible;"/>
		</clipPath>
		<g class="st82">
			<defs>
				<rect id="SVGID_159_" x="-105.6" y="-516.5" width="921" height="896"/>
			</defs>
			<clipPath id="SVGID_160_">
				<use xlink:href="#SVGID_159_"  style="overflow:visible;"/>
			</clipPath>
			<rect x="197.4" y="131.5" class="st83" width="39" height="46"/>
		</g>
	</g>
	<line class="st65" x1="222.4" y1="171.5" x2="219.4" y2="158.5"/>
	<g>
		<defs>
			<path id="SVGID_161_" d="M198.4,195.6c0.6-0.2,0.3,1.1,54.6-22.1l2.3,3.1c0.2,3.7-0.9,6.5-2.9,7.9l-53.5,34L198.4,195.6z"/>
		</defs>
		<clipPath id="SVGID_162_">
			<use xlink:href="#SVGID_161_"  style="overflow:visible;"/>
		</clipPath>
		<g class="st84">
			<defs>
				<rect id="SVGID_163_" x="-105.6" y="-516.5" width="921" height="896"/>
			</defs>
			<clipPath id="SVGID_164_">
				<use xlink:href="#SVGID_163_"  style="overflow:visible;"/>
			</clipPath>
			<rect x="193.4" y="168.5" class="st85" width="67" height="55"/>
		</g>
	</g>
	<g>
		<defs>
			<path id="SVGID_165_" d="M255.1,176.9l0.3-26.3c0-0.6-0.5-1.1-1.2-1.1c-0.6,0-1,0.4-1.1,0.9l-7.7,31.1L255.1,176.9z"/>
		</defs>
		<clipPath id="SVGID_166_">
			<use xlink:href="#SVGID_165_"  style="overflow:visible;"/>
		</clipPath>
		<g class="st86">
			<defs>
				<rect id="SVGID_167_" x="-105.6" y="-516.5" width="921" height="896"/>
			</defs>
			<clipPath id="SVGID_168_">
				<use xlink:href="#SVGID_167_"  style="overflow:visible;"/>
			</clipPath>
			<rect x="240.4" y="144.5" class="st87" width="20" height="42"/>
		</g>
	</g>
	<g>
		<defs>
			<path id="SVGID_169_" d="M247,127.2l-16.6,6.4c0,0,10.6,5.9,24.1,5.9c15.1,0,25.9-5.6,25.9-5.6l-17.3-7.4L247,127.2z"/>
		</defs>
		<clipPath id="SVGID_170_">
			<use xlink:href="#SVGID_169_"  style="overflow:visible;"/>
		</clipPath>
		<g class="st88">
			<defs>
				<rect id="SVGID_171_" x="-105.6" y="-516.5" width="921" height="896"/>
			</defs>
			<clipPath id="SVGID_172_">
				<use xlink:href="#SVGID_171_"  style="overflow:visible;"/>
			</clipPath>
			<rect x="225.4" y="121.5" class="st89" width="60" height="23"/>
		</g>
	</g>
	<g>
		<defs>
			<path id="SVGID_173_" d="M263.3,110c0,0-2.6,0.1-6.2,0.8c-3.6,0.7-6.6-1.2-7.3,1.2c0,0-2.9-2.5-2.9-2.5l-1.5,24.4
				c0,0,9.6,5.9,20-0.3L263.3,110z"/>
		</defs>
		<clipPath id="SVGID_174_">
			<use xlink:href="#SVGID_173_"  style="overflow:visible;"/>
		</clipPath>
		<g class="st90">
			<defs>
				<rect id="SVGID_175_" x="-105.6" y="-516.5" width="921" height="896"/>
			</defs>
			<clipPath id="SVGID_176_">
				<use xlink:href="#SVGID_175_"  style="overflow:visible;"/>
			</clipPath>
			<rect x="240.4" y="104.5" class="st91" width="30" height="37"/>
		</g>
	</g>
	<g>
		<defs>
			<path id="SVGID_177_" d="M244.4,106.5c0,0,4.5,11.2,20,12l-1.3-15L244.4,106.5z"/>
		</defs>
		<clipPath id="SVGID_178_">
			<use xlink:href="#SVGID_177_"  style="overflow:visible;"/>
		</clipPath>
		<g class="st92">
			<defs>
				<rect id="SVGID_179_" x="-105.6" y="-516.5" width="921" height="896"/>
			</defs>
			<clipPath id="SVGID_180_">
				<use xlink:href="#SVGID_179_"  style="overflow:visible;"/>
			</clipPath>
			<rect x="239.4" y="98.5" class="st93" width="30" height="25"/>
		</g>
	</g>
	<g>
		<defs>
			<path id="SVGID_181_" d="M281.4,79.6c0,13.7-10.7,24.9-24,24.9c-13.3,0-24-11.1-24-24.9c0-13.7,10.7-23.1,24-23.1
				C270.7,56.5,281.4,65.9,281.4,79.6"/>
		</defs>
		<clipPath id="SVGID_182_">
			<use xlink:href="#SVGID_181_"  style="overflow:visible;"/>
		</clipPath>
		<g class="st94">
			<defs>
				<rect id="SVGID_183_" x="-105.6" y="-516.5" width="921" height="896"/>
			</defs>
			<clipPath id="SVGID_184_">
				<use xlink:href="#SVGID_183_"  style="overflow:visible;"/>
			</clipPath>
			<rect x="228.4" y="51.5" class="st95" width="58" height="58"/>
		</g>
	</g>
	<g>
		<defs>
			<path id="SVGID_185_" d="M274.4,80.2c0,7.8-1.1,14.5-2.2,19.2c-1.1,4.7-4.1,7.9-8.4,10.5l-0.8,0.5c-4.5,2.8-10.4,2.8-15,0.2
				c-4.6-2.7-7.9-6.2-8.9-11.2c-1.8-9.1-2-19.1-2-19.1s-1.7-19.6,18.4-19.2C275.6,61.3,274.4,80.2,274.4,80.2"/>
		</defs>
		<clipPath id="SVGID_186_">
			<use xlink:href="#SVGID_185_"  style="overflow:visible;"/>
		</clipPath>
		<g class="st96">
			<defs>
				<rect id="SVGID_187_" x="-98.6" y="-511.3" width="904.1" height="888.6"/>
			</defs>
			<clipPath id="SVGID_188_">
				<use xlink:href="#SVGID_187_"  style="overflow:visible;"/>
			</clipPath>
			<rect x="232.2" y="56" class="st97" width="47.1" height="61.5"/>
		</g>
	</g>
	<g>
		<defs>
			<path id="SVGID_189_" d="M239.1,99.9c-3.5,3.2-12.2-6.2-9-9.9c3-3.5,7.2,0.5,7.2,0.5l0.7,3.5l1.1,4.7l0.3,1.1L239.1,99.9z"/>
		</defs>
		<clipPath id="SVGID_190_">
			<use xlink:href="#SVGID_189_"  style="overflow:visible;"/>
		</clipPath>
		<g class="st98">
			<defs>
				<rect id="SVGID_191_" x="-105.6" y="-516.5" width="921" height="896"/>
			</defs>
			<clipPath id="SVGID_192_">
				<use xlink:href="#SVGID_191_"  style="overflow:visible;"/>
			</clipPath>
			<rect x="224.4" y="83.5" class="st99" width="20" height="22"/>
		</g>
	</g>
	<g>
		<defs>
			<path id="SVGID_193_" d="M272.7,100.1c3.6,2.8,12.4-7.5,8.9-10.4c-3.5-3-7.3,0.9-7.3,0.9l-0.6,3.5l-1,4.8l-0.2,1.1L272.7,100.1z"
				/>
		</defs>
		<clipPath id="SVGID_194_">
			<use xlink:href="#SVGID_193_"  style="overflow:visible;"/>
		</clipPath>
		<g class="st100">
			<defs>
				<rect id="SVGID_195_" x="-105.6" y="-516.5" width="921" height="896"/>
			</defs>
			<clipPath id="SVGID_196_">
				<use xlink:href="#SVGID_195_"  style="overflow:visible;"/>
			</clipPath>
			<rect x="267.4" y="83.5" class="st101" width="20" height="22"/>
		</g>
	</g>
	<g>
		<defs>
			<polygon id="SVGID_197_" points="233.4,87.2 237.4,92.5 236.6,79.5 			"/>
		</defs>
		<clipPath id="SVGID_198_">
			<use xlink:href="#SVGID_197_"  style="overflow:visible;"/>
		</clipPath>
		<g class="st102">
			<defs>
				<rect id="SVGID_199_" x="-105.6" y="-516.5" width="921" height="896"/>
			</defs>
			<clipPath id="SVGID_200_">
				<use xlink:href="#SVGID_199_"  style="overflow:visible;"/>
			</clipPath>
			<rect x="228.4" y="74.5" class="st103" width="14" height="23"/>
		</g>
	</g>
	<g>
		<defs>
			<polygon id="SVGID_201_" points="277.4,87.3 274.4,92.5 275.1,79.5 			"/>
		</defs>
		<clipPath id="SVGID_202_">
			<use xlink:href="#SVGID_201_"  style="overflow:visible;"/>
		</clipPath>
		<g class="st104">
			<defs>
				<rect id="SVGID_203_" x="-105.6" y="-516.5" width="921" height="896"/>
			</defs>
			<clipPath id="SVGID_204_">
				<use xlink:href="#SVGID_203_"  style="overflow:visible;"/>
			</clipPath>
			<rect x="269.4" y="74.5" class="st105" width="13" height="23"/>
		</g>
	</g>
	<polyline class="st106" points="256,87.6 256.4,93.9 255.4,94.5 	"/>
	<g>
		<defs>
			<path id="SVGID_205_" d="M249.4,99.5h11c0,0-1.2,2-5.5,2C250.3,101.5,249.4,99.5,249.4,99.5"/>
		</defs>
		<clipPath id="SVGID_206_">
			<use xlink:href="#SVGID_205_"  style="overflow:visible;"/>
		</clipPath>
		<g class="st107">
			<defs>
				<rect id="SVGID_207_" x="-105.6" y="-516.5" width="921" height="896"/>
			</defs>
			<clipPath id="SVGID_208_">
				<use xlink:href="#SVGID_207_"  style="overflow:visible;"/>
			</clipPath>
			<rect x="244.4" y="94.5" class="st108" width="21" height="12"/>
		</g>
	</g>
	<g>
		<defs>
			<path id="SVGID_209_" d="M249.4,99.5l2.5-0.9c0.5-0.2,1.2-0.2,1.7,0L255,99l1.2-0.3c0.5-0.1,1.3-0.1,1.7,0l2.5,0.8H249.4z"/>
		</defs>
		<clipPath id="SVGID_210_">
			<use xlink:href="#SVGID_209_"  style="overflow:visible;"/>
		</clipPath>
		<g class="st109">
			<defs>
				<rect id="SVGID_211_" x="-105.6" y="-516.5" width="921" height="896"/>
			</defs>
			<clipPath id="SVGID_212_">
				<use xlink:href="#SVGID_211_"  style="overflow:visible;"/>
			</clipPath>
			<rect x="244.4" y="93.5" class="st110" width="21" height="11"/>
		</g>
	</g>
	<path class="st111" d="M249.4,86.5c0,0-2.7,2.2-6,0"/>
	<path class="st111" d="M266.4,86.5c0,0-2.7,2.2-6,0"/>
	<g>
		<defs>
			<path id="SVGID_213_" d="M259.4,81.8c0,0,6,0.3,10,2.8c0,0,0-2.5-3.8-3.7C261.8,79.7,259.4,81.8,259.4,81.8"/>
		</defs>
		<clipPath id="SVGID_214_">
			<use xlink:href="#SVGID_213_"  style="overflow:visible;"/>
		</clipPath>
		<g class="st112">
			<defs>
				<rect id="SVGID_215_" x="-105.6" y="-516.5" width="921" height="896"/>
			</defs>
			<clipPath id="SVGID_216_">
				<use xlink:href="#SVGID_215_"  style="overflow:visible;"/>
			</clipPath>
			<rect x="254.4" y="75.5" class="st113" width="20" height="14"/>
		</g>
	</g>
	<g>
		<defs>
			<path id="SVGID_217_" d="M251.4,81.8c0,0-6,0.3-10,2.8c0,0,0-2.5,3.8-3.7C249,79.7,251.4,81.8,251.4,81.8"/>
		</defs>
		<clipPath id="SVGID_218_">
			<use xlink:href="#SVGID_217_"  style="overflow:visible;"/>
		</clipPath>
		<g class="st114">
			<defs>
				<rect id="SVGID_219_" x="-105.6" y="-516.5" width="921" height="896"/>
			</defs>
			<clipPath id="SVGID_220_">
				<use xlink:href="#SVGID_219_"  style="overflow:visible;"/>
			</clipPath>
			<rect x="236.4" y="75.5" class="st115" width="20" height="14"/>
		</g>
	</g>
	<g>
		<defs>
			<path id="SVGID_221_" d="M238.4,65.2c0,0,7.3,14.6,38.7,15.3c0,0,3.4-13.8-12.7-19.3C248.3,55.8,238.4,65.2,238.4,65.2"/>
		</defs>
		<clipPath id="SVGID_222_">
			<use xlink:href="#SVGID_221_"  style="overflow:visible;"/>
		</clipPath>
		<g class="st116">
			<defs>
				<rect id="SVGID_223_" x="-105.6" y="-516.5" width="921" height="896"/>
			</defs>
			<clipPath id="SVGID_224_">
				<use xlink:href="#SVGID_223_"  style="overflow:visible;"/>
			</clipPath>
			<rect x="233.4" y="54.5" class="st117" width="49" height="31"/>
		</g>
	</g>
	<g>
		<defs>
			<path id="SVGID_225_" d="M234.4,82.5c0,0,9.7-2.7,11-18C245.4,64.5,235.5,66,234.4,82.5"/>
		</defs>
		<clipPath id="SVGID_226_">
			<use xlink:href="#SVGID_225_"  style="overflow:visible;"/>
		</clipPath>
		<g class="st118">
			<defs>
				<rect id="SVGID_227_" x="-105.6" y="-516.5" width="921" height="896"/>
			</defs>
			<clipPath id="SVGID_228_">
				<use xlink:href="#SVGID_227_"  style="overflow:visible;"/>
			</clipPath>
			<rect x="229.4" y="59.5" class="st119" width="21" height="28"/>
		</g>
	</g>
</g>
</svg>
